# xmcd
#
# Track frame offsets:
#	150
#	14845
#	26573
#	44424
#	60390
#	73202
#	85556
#	98193
#	114998
#	132762
#	148579
#	164522
#	184619
#	198895
#	213997
#
# Disc length: 3126 seconds
# Revision: 0
# Processed by: cddbd v1.5.2PL0 Copyright (c) Steve Scherf et al.
# Submitted via: dBpowerAMP V12.0
#
DISCID=cf0c340f
DTITLE=Roz Brown - A Cowboy And His Sweetheart
DYEAR=2011
DGENRE=Country
TTITLE0=I Wouldn't Want To Live Without You
TTITLE1=Some Broken Hearts Never Mend
TTITLE2=Someone Like You
TTITLE3=Come Early Morning
TTITLE4=Lay Down Beside Me
TTITLE5=Love Me Tonight
TTITLE6=Especially You
TTITLE7=If I Needed You
TTITLE8=After All These Years
TTITLE9=You're Me Best Friend
TTITLE10=You're The Only One
TTITLE11=The Rose
TTITLE12=I've Got A Winner In You
TTITLE13=Fairweather Friends
TTITLE14=Till The Rivers All Run Dry
EXTD=
EXTT0=
EXTT1=
EXTT2=
EXTT3=
EXTT4=
EXTT5=
EXTT6=
EXTT7=
EXTT8=
EXTT9=
EXTT10=
EXTT11=
EXTT12=
EXTT13=
EXTT14=
PLAYORDER=
